<svg version="1" xmlns="http://www.w3.org/2000/svg" width="933.333" height="933.333" viewBox="0 0 700.000000 700.000000"><path d="M0 350v350h700V0H0v350zm268-92v58H145V200h123v58zm143 0v58H287V200h124v58zm142 0v58H430V200h123v58zM228.4 362.4c18.4 5.1 26.9 16 27 34.2 0 7.2-.4 8.9-3.2 14.7-3.5 7-8.1 11.6-14.4 14.4-2.1.9-3.8 1.9-3.8 2.3 0 .3 1.5 2.8 3.4 5.5 3.8 5.8 25.6 41.5 25.6 42.1 0 .2-5.2.4-11.5.4h-11.4l-5.1-8.8c-2.9-4.8-8.8-14.9-13.3-22.5l-8.2-13.8-12 .3-12 .3-.3 22.3-.2 22.3-9.8-.3-9.7-.3-.3-56.5c-.1-31.1 0-57.1.3-57.9.8-2.1 50.7-1 58.9 1.3zm127.4 6.3l.3 8.3H299v30h50v17h-50v34h60v17h-80V360l38.3.2 38.2.3.3 8.2zm99.2-.2v8.5h-56v30h50v17h-50v34l29.8.2 29.7.3.3 8.2.3 8.3H378V360h77v8.5zm43 40.5v49h57v17h-77V360h20v49z"/><path d="M177 258.1v42.1l20.3-.4c23.7-.6 28.3-1.6 35.2-8.4 6.9-6.7 8.3-15.3 3.9-24.2-2.4-4.9-9.7-11.2-13.1-11.2-2 0-1.6-.9 1.7-3.7 9.5-7.9 8.4-23.6-2.1-30.9-6.4-4.4-11.7-5.4-29.6-5.4H177v42.1zm32.4-27.7c9 3.8 8.6 15.5-.7 18.5-1.7.6-6.1 1.2-9.7 1.3l-6.5.3-.3-10.8-.3-10.7h7.1c3.9 0 8.6.6 10.4 1.4zm8.4 36c4.3 2.2 6.6 7.4 5.1 11.3-2.6 7-9.4 9.7-22.9 9.1l-7.5-.3-.3-11.4-.3-11.3 11.3.4c8.3.3 12.2.9 14.6 2.2zM319 258.1v42.1l20.8-.4c22.8-.6 26.8-1.4 33.5-6.9 5.2-4.3 7.7-9.6 7.7-16.4 0-9-3.9-15-12.9-19.5l-4.4-2.2 3.2-1.9c1.8-1.1 4.1-3.8 5.1-6.2 4.1-8.8 1.5-19.2-6.1-24.6-6.9-5-12.2-6.1-30.6-6.1H319v42.1zm33-27.5c4.7 1.9 6 3.8 6 8.9 0 7.3-3.6 9.7-15.8 11l-7.2.7V229h6.5c3.6 0 8.2.7 10.5 1.6zm5.2 34.4c4.3 1.2 8.8 6.1 8.8 9.5 0 3.9-2.1 7.4-5.8 9.7-2.9 1.8-5.5 2.2-14.4 2.6l-10.8.5V264h9.3c5 0 10.9.5 12.9 1zM490.5 215.6c-10.7 2.1-13.7 3-18 5.1-13.6 6.8-21.8 18.6-24 34.4-2.1 14.5 8.6 33.2 23 40.3 14.8 7.2 36.6 7.3 52.1.2l5.4-2.5V277l-4.8 2.4c-19.1 9.7-39 9.3-50.8-.8-6.3-5.4-8.9-11.6-8.9-21.1 0-9.7 2.7-15.9 9.3-21.4 11.9-9.9 28.6-10.7 46.8-2.2 3.7 1.7 6.8 3.1 7 3.1.2 0 .4-3.3.4-7.4v-7.4l-7.7-2.6c-12.2-3.9-22.7-5.4-29.8-4zM189.8 376.5c-.5.5-.8 9.3-.8 19.7V415h13.3c23.8 0 32.1-4.9 32-19.1-.1-9.2-4.9-15.4-13.8-17.8-5-1.4-29.7-2.6-30.7-1.6z"/></svg>